<svg xmlns="http://www.w3.org/2000/svg" viewBox="0 0 60 60"><defs><style>.cls-1{fill:#fff;}</style></defs><g id="Arrow"><path class="cls-1" d="M45,32.5H11a2.5,2.5,0,0,1,0-5H45a2.5,2.5,0,0,1,0,5Z"/><path class="cls-1" d="M43.23,31.77,32,20.55A2.5,2.5,0,1,1,35.55,17L46.77,28.23a2.5,2.5,0,0,1-3.54,3.54Z"/><path class="cls-1" d="M46.77,31.77,35.55,43A2.5,2.5,0,1,1,32,39.45L43.23,28.23a2.5,2.5,0,0,1,3.54,3.54Z"/></g><g id="Circle"><path class="cls-1" d="M30,60A30,30,0,1,1,60,30,30,30,0,0,1,30,60ZM30,5A25,25,0,1,0,55,30,25,25,0,0,0,30,5Z"/></g></svg>