<?xml version="1.0" encoding="utf-8"?>
<!-- Generator: Adobe Illustrator 26.1.0, SVG Export Plug-In . SVG Version: 6.00 Build 0)  -->
<svg version="1.1" xmlns="http://www.w3.org/2000/svg" xmlns:xlink="http://www.w3.org/1999/xlink" x="0px" y="0px"
	 viewBox="0 0 225 225" style="enable-background:new 0 0 225 225;" xml:space="preserve">
<style type="text/css">
	.st0{fill:#969696;}
	.st1{fill:none;stroke:#969696;stroke-width:0.25;stroke-linecap:round;stroke-linejoin:round;stroke-miterlimit:10;}
	.st2{fill:none;stroke:#969696;stroke-width:0.75;stroke-linecap:round;stroke-linejoin:round;stroke-miterlimit:10;}
</style>
<g id="Подложка_бел">
</g>
<g id="Фон">
	<path class="st0" d="M74,0c0-0.55,0.45-1,1-1c0.55,0,1,0.45,1,1c0,0.55-0.45,1-1,1C74.45,1,74,0.55,74,0"/>
	<path class="st0" d="M-1,75c0-0.55,0.45-1,1-1c0.55,0,1,0.45,1,1c0,0.55-0.45,1-1,1C-0.55,76-1,75.55-1,75"/>
	<path class="st0" d="M36.5,37.5c0-0.55,0.45-1,1-1c0.55,0,1,0.45,1,1c0,0.55-0.45,1-1,1C36.95,38.5,36.5,38.05,36.5,37.5"/>
	<path class="st0" d="M74,75c0-0.55,0.45-1,1-1c0.55,0,1,0.45,1,1c0,0.55-0.45,1-1,1C74.45,76,74,75.55,74,75"/>
	<path class="st0" d="M-1,150c0-0.55,0.45-1,1-1c0.55,0,1,0.45,1,1c0,0.55-0.45,1-1,1C-0.55,151-1,150.55-1,150"/>
	<path class="st0" d="M36.5,112.5c0-0.55,0.45-1,1-1c0.55,0,1,0.45,1,1c0,0.55-0.45,1-1,1C36.95,113.5,36.5,113.05,36.5,112.5"/>
	<path class="st0" d="M74,150c0-0.55,0.45-1,1-1c0.55,0,1,0.45,1,1c0,0.55-0.45,1-1,1C74.45,151,74,150.55,74,150"/>
	<path class="st0" d="M36.5,187.5c0-0.55,0.45-1,1-1c0.55,0,1,0.45,1,1c0,0.55-0.45,1-1,1C36.95,188.5,36.5,188.05,36.5,187.5"/>
	<path class="st0" d="M74,225c0-0.55,0.45-1,1-1c0.55,0,1,0.45,1,1c0,0.55-0.45,1-1,1C74.45,226,74,225.55,74,225"/>
	<path class="st0" d="M149,0c0-0.55,0.45-1,1-1c0.55,0,1,0.45,1,1c0,0.55-0.45,1-1,1C149.45,1,149,0.55,149,0"/>
	<path class="st0" d="M111.5,37.5c0-0.55,0.45-1,1-1c0.55,0,1,0.45,1,1c0,0.55-0.45,1-1,1C111.95,38.5,111.5,38.05,111.5,37.5"/>
	<path class="st0" d="M149,75c0-0.55,0.45-1,1-1c0.55,0,1,0.45,1,1c0,0.55-0.45,1-1,1C149.45,76,149,75.55,149,75"/>
	<path class="st0" d="M186.5,37.5c0-0.55,0.45-1,1-1c0.55,0,1,0.45,1,1c0,0.55-0.45,1-1,1C186.95,38.5,186.5,38.05,186.5,37.5"/>
	<path class="st0" d="M224,75c0-0.55,0.45-1,1-1c0.55,0,1,0.45,1,1c0,0.55-0.45,1-1,1C224.45,76,224,75.55,224,75"/>
	<path class="st0" d="M111.5,112.5c0-0.55,0.45-1,1-1c0.55,0,1,0.45,1,1c0,0.55-0.45,1-1,1C111.95,113.5,111.5,113.05,111.5,112.5"
		/>
	<path class="st0" d="M149,150c0-0.55,0.45-1,1-1c0.55,0,1,0.45,1,1c0,0.55-0.45,1-1,1C149.45,151,149,150.55,149,150"/>
	<path class="st0" d="M186.5,112.5c0-0.55,0.45-1,1-1c0.55,0,1,0.45,1,1c0,0.55-0.45,1-1,1C186.95,113.5,186.5,113.05,186.5,112.5"
		/>
	<path class="st0" d="M224,150c0-0.55,0.45-1,1-1c0.55,0,1,0.45,1,1c0,0.55-0.45,1-1,1C224.45,151,224,150.55,224,150"/>
	<path class="st0" d="M111.5,187.5c0-0.55,0.45-1,1-1c0.55,0,1,0.45,1,1c0,0.55-0.45,1-1,1C111.95,188.5,111.5,188.05,111.5,187.5"
		/>
	<path class="st0" d="M149,225c0-0.55,0.45-1,1-1c0.55,0,1,0.45,1,1c0,0.55-0.45,1-1,1C149.45,226,149,225.55,149,225"/>
	<path class="st0" d="M186.5,187.5c0-0.55,0.45-1,1-1c0.55,0,1,0.45,1,1c0,0.55-0.45,1-1,1C186.95,188.5,186.5,188.05,186.5,187.5"
		/>
	<line class="st1" x1="0" y1="-0.02" x2="0" y2="225.02"/>
	<line class="st1" x1="75" y1="-0.02" x2="75" y2="225.02"/>
	<line class="st1" x1="150" y1="-0.02" x2="150" y2="225.02"/>
	<line class="st1" x1="225" y1="-0.02" x2="225" y2="225.02"/>
	<line class="st1" x1="225" y1="225" x2="0" y2="225"/>
	<line class="st1" x1="225" y1="150" x2="0" y2="150"/>
	<line class="st1" x1="225" y1="75" x2="0" y2="75"/>
	<line class="st1" x1="225" y1="-0.02" x2="0" y2="-0.02"/>
	<line class="st2" x1="5.7" y1="0" x2="-5.7" y2="0"/>
	<line class="st2" x1="0" y1="5.7" x2="0" y2="-5.7"/>
	<line class="st2" x1="5.7" y1="225" x2="-5.7" y2="225"/>
	<line class="st2" x1="0" y1="230.7" x2="0" y2="219.3"/>
	<line class="st2" x1="230.7" y1="0" x2="219.3" y2="0"/>
	<line class="st2" x1="225" y1="5.7" x2="225" y2="-5.7"/>
	<line class="st2" x1="230.7" y1="225" x2="219.3" y2="225"/>
	<line class="st2" x1="225" y1="230.7" x2="225" y2="219.3"/>
</g>
</svg>
